<svg width="32" height="32" viewBox="0 0 32 32" fill="none" xmlns="http://www.w3.org/2000/svg">
<path d="M15.2064 0.175992L0.779694 6.91599C0.682133 6.96073 0.599485 7.03256 0.541588 7.12294C0.483691 7.21331 0.452985 7.31842 0.453125 7.42575C0.453266 7.53308 0.484246 7.63811 0.542379 7.72833C0.600513 7.81856 0.683349 7.89017 0.781027 7.93466L15.321 14.6253C15.7504 14.8227 16.2464 14.8227 16.6757 14.6253L31.2157 7.93466C31.3134 7.8903 31.3964 7.81879 31.4546 7.72865C31.5129 7.6385 31.544 7.53351 31.5443 7.42618C31.5445 7.31885 31.514 7.2137 31.4562 7.12325C31.3984 7.0328 31.3159 6.96086 31.2184 6.91599L16.7904 0.175992C16.5424 0.0601174 16.2721 6.10352e-05 15.9984 6.10352e-05C15.7247 6.10352e-05 15.4543 0.0601174 15.2064 0.175992Z" fill="#00A5D6"/>
<path opacity="0.64" d="M31.219 15.568L28.239 14.176C28.0256 14.0763 27.793 14.0243 27.5575 14.0236C27.3219 14.0229 27.089 14.0735 26.875 14.172L16.6764 18.8653C16.4639 18.963 16.2329 19.0136 15.999 19.0136C15.7652 19.0136 15.5341 18.963 15.3217 18.8653L5.1217 14.172C4.90788 14.0737 4.67524 14.0232 4.43992 14.0239C4.20461 14.0246 3.97227 14.0765 3.75903 14.176L0.779029 15.568C0.681526 15.6129 0.598972 15.6848 0.541193 15.7753C0.483414 15.8657 0.452846 15.9709 0.453127 16.0782C0.453408 16.1855 0.484525 16.2905 0.542777 16.3807C0.601029 16.4708 0.683961 16.5423 0.781697 16.5867L15.3217 23.276C15.534 23.3742 15.7651 23.4251 15.999 23.4251C16.2329 23.4251 16.4641 23.3742 16.6764 23.276L31.2164 16.5867C31.3141 16.5423 31.397 16.4708 31.4553 16.3807C31.5135 16.2905 31.5447 16.1855 31.5449 16.0782C31.5452 15.9709 31.5146 15.8657 31.4569 15.7753C31.3991 15.6848 31.3165 15.6129 31.219 15.568Z" fill="#78CFE9"/>
<path d="M31.2195 24.144L28.2395 22.752C28.0261 22.6523 27.7935 22.6003 27.558 22.5996C27.3224 22.5989 27.0895 22.6495 26.8755 22.748L16.6769 27.44C16.4644 27.5377 16.2334 27.5883 15.9995 27.5883C15.7657 27.5883 15.5346 27.5377 15.3222 27.44L5.1222 22.7467C4.90838 22.6484 4.67574 22.5979 4.44042 22.5985C4.20511 22.5992 3.97277 22.6511 3.75953 22.7507L0.77953 24.144C0.682403 24.189 0.60022 24.261 0.542716 24.3513C0.485213 24.4416 0.454799 24.5465 0.45508 24.6535C0.455361 24.7606 0.486325 24.8653 0.544301 24.9553C0.602277 25.0453 0.684836 25.1168 0.782198 25.1613L15.3222 31.852C15.7515 32.0493 16.2475 32.0493 16.6769 31.852L31.2169 25.1613C31.3142 25.1168 31.3968 25.0453 31.4548 24.9553C31.5127 24.8653 31.5437 24.7606 31.544 24.6535C31.5443 24.5465 31.5138 24.4416 31.4563 24.3513C31.3988 24.261 31.3167 24.189 31.2195 24.144Z" fill="#2F364A"/>
</svg>
