<svg width="30" height="30" viewBox="0 0 30 30" fill="none" xmlns="http://www.w3.org/2000/svg">
<path d="M5.66732 0.333328H1.66732C1.3137 0.333328 0.974556 0.473803 0.724508 0.723852C0.474459 0.9739 0.333984 1.31304 0.333984 1.66666V28.3333C0.333984 28.6869 0.474459 29.0261 0.724508 29.2761C0.974556 29.5262 1.3137 29.6667 1.66732 29.6667H5.66732V0.333328Z" fill="#78CFE9"/>
<path d="M8.33398 29.6667H21.6673V0.333328H8.33398V29.6667ZM15.0007 24.3333C14.647 24.3333 14.3079 24.1929 14.0578 23.9428C13.8078 23.6928 13.6673 23.3536 13.6673 23C13.6673 22.6464 13.8078 22.3072 14.0578 22.0572C14.3079 21.8071 14.647 21.6667 15.0007 21.6667C15.3543 21.6667 15.6934 21.8071 15.9435 22.0572C16.1935 22.3072 16.334 22.6464 16.334 23C16.334 23.3536 16.1935 23.6928 15.9435 23.9428C15.6934 24.1929 15.3543 24.3333 15.0007 24.3333ZM15.0007 5.66666C15.3543 5.66666 15.6934 5.80714 15.9435 6.05718C16.1935 6.30723 16.334 6.64637 16.334 6.99999C16.334 7.35362 16.1935 7.69276 15.9435 7.9428C15.6934 8.19285 15.3543 8.33333 15.0007 8.33333C14.647 8.33333 14.3079 8.19285 14.0578 7.9428C13.8078 7.69276 13.6673 7.35362 13.6673 6.99999C13.6673 6.64637 13.8078 6.30723 14.0578 6.05718C14.3079 5.80714 14.647 5.66666 15.0007 5.66666ZM15.0007 13.6667C15.3543 13.6667 15.6934 13.8071 15.9435 14.0572C16.1935 14.3072 16.334 14.6464 16.334 15C16.334 15.3536 16.1935 15.6928 15.9435 15.9428C15.6934 16.1929 15.3543 16.3333 15.0007 16.3333C14.647 16.3333 14.3079 16.1929 14.0578 15.9428C13.8078 15.6928 13.6673 15.3536 13.6673 15C13.6673 14.6464 13.8078 14.3072 14.0578 14.0572C14.3079 13.8071 14.647 13.6667 15.0007 13.6667Z" fill="#00A5D6"/>
<path d="M28.334 0.333328H24.334V29.6667H28.334C28.6876 29.6667 29.0267 29.5262 29.2768 29.2761C29.5268 29.0261 29.6673 28.6869 29.6673 28.3333V1.66666C29.6673 1.31304 29.5268 0.9739 29.2768 0.723852C29.0267 0.473803 28.6876 0.333328 28.334 0.333328Z" fill="#2F364A"/>
</svg>
