<svg width="108" height="45" viewBox="0 0 108 45" fill="none" xmlns="http://www.w3.org/2000/svg">
<path d="M70.4938 10.9844C70.6509 11.7324 70.7687 12.2836 70.9258 13.1103C71.5935 12.6379 72.1433 12.2442 72.6931 11.8505C76.8953 8.93712 82.2364 10.3151 84.0429 15.0395C86.0458 20.2363 85.9673 25.5907 83.8073 30.7481C82.1186 34.8033 77.8378 36.8899 73.4786 36.1418C72.8502 36.0237 72.2218 35.945 71.4364 35.7875C71.4364 38.4647 71.4364 40.945 71.4364 43.6222C68.8051 44.0552 66.2916 44.5277 63.6211 44.9607C63.6211 33.5828 63.6211 22.3229 63.6211 10.9056C65.9382 10.9844 68.1767 10.9844 70.4938 10.9844ZM71.4364 23.7009C71.4364 25.1576 71.4364 26.5749 71.4364 28.0316C71.4364 30.1182 72.8109 31.0631 74.696 30.1182C75.4029 29.7639 76.1098 29.0552 76.424 28.3466C77.9164 25.0395 77.9164 21.6143 76.7775 18.1891C76.3455 16.9292 75.4029 16.0631 73.9106 16.4568C72.4967 16.8505 71.2007 17.4017 71.3971 19.3308C71.5542 20.8269 71.4364 22.2836 71.4364 23.7009Z" fill="#665BFF"/>
<path d="M107.922 25.7873C103.563 25.7873 99.3212 25.7873 95.119 25.7873C95.0405 30.5117 98.9678 31.5747 106.508 28.8976C106.744 30.4724 107.058 31.9684 107.137 33.5039C107.176 33.9369 106.547 34.6456 106.076 34.8424C101.953 36.5747 97.7111 36.8897 93.4696 35.3543C90.5634 34.2913 88.7568 32.0865 87.8928 29.1732C86.7932 25.5117 86.7539 21.8109 87.8143 18.1495C89.3459 12.9921 93.5481 9.96056 98.6536 10.3543C103.955 10.748 107.294 14.0944 107.922 19.7637C108.118 21.6535 107.922 23.5432 107.922 25.7873ZM100.657 20.8661C100.578 17.3621 99.6747 15.748 97.8289 15.7873C95.983 15.7873 94.9227 17.7165 95.0798 20.8661C96.9256 20.8661 98.7714 20.8661 100.657 20.8661Z" fill="#665BFF"/>
<path d="M0.707041 28.7008C3.33831 29.2913 5.85177 29.9606 8.4045 30.2756C9.1114 30.3543 9.9754 29.4882 10.7609 29.0551C10.2503 28.3071 9.89686 27.3228 9.18995 26.8898C7.8154 26.063 6.20522 25.6299 4.71286 24.9213C0.942678 23.1102 -0.353322 20.5906 0.275041 16.4961C0.785587 13.4252 3.14195 10.9449 6.79431 10.7087C9.70049 10.5118 12.6852 11.1417 15.6307 11.4961C16.6125 11.6142 17.0838 12.2441 16.8481 13.3071C16.5339 14.7638 16.3376 16.2598 16.1019 17.5984C13.9419 17.126 11.939 16.5354 9.89686 16.2992C9.15068 16.2205 8.28668 17.0079 7.50122 17.4016C8.05104 18.0709 8.44377 18.937 9.1114 19.3701C10.1325 20 11.3892 20.3543 12.5281 20.8268C17.1623 22.7953 18.6154 25.1969 18.0656 29.7638C17.6336 33.2283 15.1201 35.4724 10.6823 36.1417C7.30486 36.6535 4.04522 35.9449 0.942678 34.6457C0.471405 34.4488 0.000132304 33.5827 0.039405 33.0709C0.11795 31.4961 0.510678 29.9606 0.707041 28.7008Z" fill="#665BFF"/>
<path d="M21.9137 16.7324C20.7355 16.693 19.8323 16.6536 18.6934 16.5749C18.9683 14.9213 19.2039 13.3859 19.5181 11.8898C19.5966 11.5749 20.1072 11.1024 20.3821 11.1024C21.9923 11.1812 22.1101 10.0788 22.2672 8.93709C22.817 4.88197 22.817 4.88197 26.8621 4.13394C27.7654 3.97645 28.6294 3.89771 29.729 3.74023C29.729 4.96071 29.729 6.06307 29.729 7.16543C29.729 8.26779 29.729 9.37016 29.729 10.7481C31.3784 10.7481 32.8708 10.7481 34.6774 10.7481C34.4024 12.6379 34.2454 14.252 33.8919 15.8268C33.8134 16.1418 33.185 16.5355 32.7923 16.6143C31.889 16.7324 30.9857 16.6536 29.8468 16.6536C29.8468 20.63 29.7683 24.5276 29.9254 28.4253C29.9646 28.9371 31.1821 29.567 31.9675 29.8032C32.5174 30.0001 33.2243 29.6851 34.0097 29.6064C34.0097 31.6536 34.0097 33.6221 34.0097 35.945C32.2817 36.0631 30.5144 36.3387 28.8257 36.2599C24.2701 35.9843 21.9923 33.504 21.9137 28.8977C21.8744 24.882 21.9137 20.9056 21.9137 16.7324Z" fill="#665BFF"/>
<path d="M50.4664 17.7952C49.9559 17.8346 49.4846 17.8346 49.0526 17.874C45.5573 18.0315 44.7719 18.8582 44.7719 22.3228C44.7719 26.7716 44.7719 31.1811 44.7719 35.7086C42.1013 35.7086 39.6272 35.7086 37.0352 35.7086C37.0352 27.4803 37.0352 19.2913 37.0352 10.9448C39.2737 10.9448 41.5122 10.9448 43.7901 10.9448C43.9472 11.6929 44.1042 12.3622 44.3006 13.3464C45.8715 10.9842 47.7959 10.0393 50.4664 10.748C50.4664 13.1102 50.4664 15.433 50.4664 17.7952Z" fill="#665BFF"/>
<path d="M52.7051 10.9055C55.2578 10.9055 57.732 10.9055 60.324 10.9055C60.324 19.2126 60.324 27.4016 60.324 35.7087C57.8105 35.7087 55.3364 35.7087 52.7051 35.7087C52.7051 27.5197 52.7051 19.3307 52.7051 10.9055Z" fill="#665BFF"/>
<path d="M60.5585 4.09449C60.5977 6.41732 58.909 8.26772 56.6312 8.34646C54.3141 8.4252 52.3504 6.53543 52.3112 4.2126C52.2719 1.85039 54.1177 0 56.5134 0C58.8305 0 60.5192 1.69291 60.5585 4.09449Z" fill="#665BFF"/>
</svg>
