<svg width="207" height="31" viewBox="0 0 207 31" fill="none" xmlns="http://www.w3.org/2000/svg">
<g clip-path="url(#clip0_257_5334)">
<path d="M53.6511 20.5077H44.0404L42.1922 24.9589H37.2812L46.5223 4.1333H51.2749L60.5688 25.0119H55.4994L53.6511 20.5077ZM52.1726 16.8512L48.8986 8.84954L45.6246 16.8512H52.1726Z" fill="white"/>
<path d="M67.4861 9.32659H71.605V12.93H67.5917V25.0121H62.9448V12.877H60.4629V9.2736H62.9448V8.53172C62.9448 6.67702 63.4728 5.24625 64.5818 4.18642C65.6907 3.12659 67.1693 2.59668 69.1231 2.59668C69.8096 2.59668 70.4961 2.64967 71.0769 2.80865C71.6578 2.96762 72.2387 3.17959 72.6611 3.44454L71.4466 6.836C70.9185 6.46506 70.2848 6.25309 69.5983 6.25309C68.1726 6.25309 67.4861 7.04796 67.4861 8.58471V9.32659Z" fill="white"/>
<path d="M82.9583 9.32656C83.9088 8.90263 84.9649 8.74365 86.2322 8.74365V13.036C85.7042 12.983 85.3873 12.983 85.1761 12.983C83.856 12.983 82.7998 13.3539 82.0606 14.0958C81.3213 14.8377 80.9516 15.9505 80.9516 17.4342V25.012H76.3047V8.95562H80.7404V11.0753C81.2685 10.2804 82.0078 9.6975 82.9583 9.32656Z" fill="white"/>
<path d="M89.1886 5.98815C88.6605 5.51122 88.3965 4.87533 88.3965 4.13345C88.3965 3.39157 88.6605 2.75567 89.1886 2.27875C89.7166 1.80182 90.4031 1.53687 91.248 1.53687C92.0929 1.53687 92.7794 1.80182 93.3075 2.27875C93.8355 2.75567 94.0996 3.33857 94.0996 4.08045C94.0996 4.87533 93.8355 5.51122 93.3075 5.98815C92.7794 6.51806 92.0929 6.73003 91.248 6.73003C90.4559 6.73003 89.7166 6.46507 89.1886 5.98815ZM88.9774 8.95567H93.6243V25.0121H88.9774V8.95567Z" fill="white"/>
<path d="M101.018 24.1642C99.6446 23.4753 98.5885 22.4684 97.8492 21.2496C97.1099 19.9778 96.6875 18.6 96.6875 17.0103C96.6875 15.4206 97.0571 13.9898 97.8492 12.771C98.5885 11.4992 99.6974 10.5453 101.018 9.85646C102.391 9.16757 103.922 8.79663 105.612 8.79663C107.302 8.79663 108.78 9.16757 110.047 9.85646C111.315 10.5453 112.213 11.5522 112.793 12.877L109.203 14.8377C108.358 13.3539 107.196 12.612 105.612 12.612C104.397 12.612 103.394 13.0359 102.602 13.8308C101.81 14.6257 101.387 15.6855 101.387 17.0633C101.387 18.4411 101.81 19.5009 102.602 20.2958C103.394 21.0906 104.397 21.5146 105.612 21.5146C107.196 21.5146 108.41 20.7727 109.203 19.2889L112.793 21.2496C112.213 22.5214 111.315 23.5283 110.047 24.2171C108.78 24.959 107.302 25.277 105.612 25.277C103.922 25.224 102.391 24.906 101.018 24.1642Z" fill="white"/>
<path d="M131.911 21.1436V25.0119H115.805V4.1333H131.488V8.00168H120.557V12.5589H130.221V16.3213H120.557V21.1436H131.911Z" fill="white"/>
<path d="M145.376 25.012L141.891 20.0838L138.247 25.012H133.178L139.303 16.9573L133.336 9.00854H138.511L141.891 13.6718L145.376 9.00854H150.287L144.32 16.8513L150.498 25.065H145.376V25.012Z" fill="white"/>
<path d="M166.391 9.75049C167.606 10.4394 168.556 11.3932 169.243 12.665C169.929 13.8838 170.299 15.3676 170.299 17.0103C170.299 18.6531 169.929 20.0838 169.243 21.3556C168.556 22.5744 167.606 23.5813 166.391 24.2701C165.177 24.959 163.804 25.277 162.325 25.277C160.266 25.277 158.682 24.6411 157.52 23.3163V30.7881H152.873V8.95562H157.309V10.8103C158.47 9.43254 160.107 8.74365 162.325 8.74365C163.804 8.74365 165.177 9.0616 166.391 9.75049ZM164.438 20.1898C165.177 19.3949 165.599 18.2821 165.599 16.9573C165.599 15.5795 165.23 14.5197 164.438 13.7248C163.698 12.93 162.695 12.506 161.533 12.506C160.319 12.506 159.368 12.93 158.629 13.7248C157.89 14.5197 157.467 15.6325 157.467 16.9573C157.467 18.3351 157.837 19.3949 158.629 20.1898C159.368 20.9847 160.372 21.4086 161.533 21.4086C162.695 21.4086 163.698 21.0377 164.438 20.1898Z" fill="white"/>
<path d="M185.244 10.4923C186.565 11.6581 187.251 13.4598 187.251 15.8444V25.0119H182.921V22.9982C182.023 24.482 180.439 25.2239 178.063 25.2239C176.848 25.2239 175.792 25.0119 174.894 24.588C173.997 24.1641 173.31 23.5811 172.835 22.8393C172.36 22.0974 172.148 21.2495 172.148 20.3487C172.148 18.8649 172.729 17.6991 173.838 16.8512C174.947 16.0034 176.69 15.5794 179.013 15.5794H182.71C182.71 14.5726 182.393 13.7777 181.812 13.2478C181.178 12.7179 180.281 12.4529 179.066 12.4529C178.221 12.4529 177.376 12.6119 176.531 12.8769C175.686 13.1418 175 13.5128 174.419 13.9897L172.729 10.7572C173.574 10.1213 174.63 9.64439 175.845 9.32644C177.059 9.00849 178.327 8.79653 179.594 8.79653C182.023 8.74354 183.924 9.32644 185.244 10.4923ZM181.284 21.5675C181.918 21.1965 182.34 20.6666 182.604 19.9247V18.282H179.436C177.535 18.282 176.584 18.9179 176.584 20.1367C176.584 20.7196 176.795 21.1965 177.271 21.5675C177.746 21.9384 178.38 22.0974 179.172 22.0974C179.964 22.0974 180.703 21.9384 181.284 21.5675Z" fill="white"/>
<path d="M207 8.95557L199.765 25.9658C199.026 27.8205 198.128 29.0923 197.072 29.8872C196.016 30.6291 194.696 31 193.164 31C192.319 31 191.527 30.894 190.682 30.6291C189.89 30.3641 189.204 29.9932 188.676 29.5692L190.366 26.2838C190.735 26.6017 191.158 26.8667 191.58 27.0257C192.055 27.1846 192.531 27.2906 192.953 27.2906C193.587 27.2906 194.115 27.1316 194.484 26.8137C194.907 26.4957 195.224 26.0188 195.541 25.2769L195.593 25.118L188.676 8.95557H193.481L197.97 19.8188L202.511 8.95557H207Z" fill="white"/>
<path opacity="0.53" d="M12.4629 6.67692L16.1593 0C16.1593 0 18.958 12.4 23.2353 17.0103L12.4629 6.67692Z" fill="#00A5D6"/>
<path opacity="0.75" d="M11.2468 8.53174L7.86719 15.4736C7.86719 15.4736 19.1149 16.6924 25.9269 21.0377L11.2468 8.53174Z" fill="#00A5D6"/>
<path d="M6.17832 17.8052L0 28.6154C0 28.6154 19.7495 19.183 31.314 26.4428C31.314 26.4428 26.8255 19.9778 6.17832 17.8052Z" fill="#00A5D6"/>
</g>
<defs>
<clipPath id="clip0_257_5334">
<rect width="207" height="31" fill="white"/>
</clipPath>
</defs>
</svg>
