<svg width="233" height="35" viewBox="0 0 233 35" fill="none" xmlns="http://www.w3.org/2000/svg">
<path d="M60.3899 23.1539H49.572L47.4917 28.1795H41.9639L52.3657 4.66667H57.7151L68.1764 28.2393H62.4702L60.3899 23.1539ZM58.7256 19.0256L55.0404 9.99146L51.3552 19.0256H58.7256Z" fill="black"/>
<path d="M75.9627 10.5299H80.599V14.5983H76.0816V28.2393H70.851V14.5385H68.0574V10.4701H70.851V9.63248C70.851 7.53846 71.4454 5.92308 72.6936 4.7265C73.9418 3.52992 75.6061 2.93163 77.8053 2.93163C78.578 2.93163 79.3507 2.99145 80.0046 3.17094C80.6584 3.35043 81.3122 3.58974 81.7877 3.88889L80.4206 7.71795C79.8262 7.29915 79.113 7.05983 78.3403 7.05983C76.7354 7.05983 75.9627 7.95727 75.9627 9.69231V10.5299Z" fill="black"/>
<path d="M93.3782 10.5299C94.4481 10.0513 95.6369 9.8718 97.0634 9.8718V14.7179C96.469 14.6581 96.1124 14.6581 95.8746 14.6581C94.3887 14.6581 93.1999 15.0769 92.3677 15.9145C91.5356 16.7521 91.1195 18.0085 91.1195 19.6838V28.2393H85.8889V10.1111H90.8818V12.5043C91.4762 11.6068 92.3083 10.9487 93.3782 10.5299Z" fill="black"/>
<path d="M100.392 6.76069C99.7977 6.22223 99.5005 5.50428 99.5005 4.66667C99.5005 3.82906 99.7977 3.11111 100.392 2.57265C100.986 2.03419 101.759 1.73505 102.71 1.73505C103.661 1.73505 104.434 2.03419 105.028 2.57265C105.623 3.11111 105.92 3.76923 105.92 4.60684C105.92 5.50428 105.623 6.22223 105.028 6.76069C104.434 7.35898 103.661 7.59829 102.71 7.59829C101.819 7.59829 100.986 7.29915 100.392 6.76069ZM100.154 10.1111H105.385V28.2393H100.154V10.1111Z" fill="black"/>
<path d="M113.706 27.2821C112.161 26.5043 110.972 25.3675 110.14 23.9915C109.308 22.5556 108.833 21 108.833 19.2051C108.833 17.4103 109.249 15.7949 110.14 14.4188C110.972 12.9829 112.221 11.906 113.706 11.1282C115.252 10.3504 116.976 9.93163 118.878 9.93163C120.78 9.93163 122.444 10.3504 123.871 11.1282C125.297 11.906 126.308 13.0427 126.961 14.5385L122.92 16.7521C121.968 15.0769 120.661 14.2393 118.878 14.2393C117.511 14.2393 116.381 14.718 115.49 15.6154C114.598 16.5128 114.123 17.7094 114.123 19.265C114.123 20.8205 114.598 22.0171 115.49 22.9145C116.381 23.812 117.511 24.2906 118.878 24.2906C120.661 24.2906 122.028 23.453 122.92 21.7778L126.961 23.9915C126.308 25.4274 125.297 26.5641 123.871 27.3419C122.444 28.1795 120.78 28.5385 118.878 28.5385C116.976 28.4786 115.252 28.1197 113.706 27.2821Z" fill="black"/>
<path d="M148.478 23.8718V28.2393H130.349V4.66667H148.002V9.03419H135.699V14.1795H146.576V18.4274H135.699V23.8718H148.478Z" fill="black"/>
<path d="M163.635 28.2393L159.712 22.6752L155.611 28.2393H149.905L156.799 19.1453L150.083 10.1709H155.908L159.712 15.4359L163.635 10.1709H169.163L162.446 19.0256L169.4 28.2991H163.635V28.2393Z" fill="black"/>
<path d="M187.292 11.0085C188.659 11.7863 189.729 12.8632 190.501 14.2991C191.274 15.6752 191.69 17.3504 191.69 19.2051C191.69 21.0598 191.274 22.6752 190.501 24.1111C189.729 25.4872 188.659 26.6239 187.292 27.4017C185.924 28.1795 184.379 28.5385 182.715 28.5385C180.397 28.5385 178.613 27.8205 177.306 26.3248V34.7607H172.075V10.1111H177.068V12.2051C178.376 10.6496 180.218 9.8718 182.715 9.8718C184.379 9.8718 185.924 10.2308 187.292 11.0085ZM185.092 22.7949C185.924 21.8974 186.4 20.641 186.4 19.1453C186.4 17.5897 185.984 16.3932 185.092 15.4957C184.26 14.5983 183.131 14.1197 181.823 14.1197C180.456 14.1197 179.386 14.5983 178.554 15.4957C177.722 16.3932 177.246 17.6496 177.246 19.1453C177.246 20.7009 177.662 21.8974 178.554 22.7949C179.386 23.6923 180.515 24.1709 181.823 24.1709C183.131 24.1709 184.26 23.7521 185.092 22.7949Z" fill="black"/>
<path d="M208.511 11.8462C209.997 13.1624 210.77 15.1966 210.77 17.8889V28.2393H205.896V25.9658C204.886 27.641 203.102 28.4786 200.428 28.4786C199.061 28.4786 197.872 28.2393 196.861 27.7607C195.851 27.2821 195.078 26.6239 194.543 25.7863C194.008 24.9487 193.771 23.9915 193.771 22.9744C193.771 21.2992 194.424 19.9829 195.673 19.0256C196.921 18.0684 198.882 17.5897 201.498 17.5897H205.658C205.658 16.453 205.302 15.5556 204.648 14.9573C203.935 14.359 202.924 14.0598 201.557 14.0598C200.606 14.0598 199.655 14.2393 198.704 14.5385C197.753 14.8376 196.98 15.2564 196.326 15.7949L194.424 12.1453C195.375 11.4274 196.564 10.8889 197.931 10.5299C199.298 10.1709 200.725 9.93163 202.151 9.93163C204.886 9.8718 207.025 10.5299 208.511 11.8462ZM204.053 24.3504C204.767 23.9316 205.242 23.3333 205.539 22.4957V20.641H201.973C199.833 20.641 198.763 21.359 198.763 22.735C198.763 23.3932 199.001 23.9316 199.536 24.3504C200.071 24.7692 200.784 24.9487 201.676 24.9487C202.567 24.9487 203.4 24.7692 204.053 24.3504Z" fill="black"/>
<path d="M233 10.1111L224.857 29.3162C224.025 31.4103 223.014 32.8462 221.826 33.7436C220.637 34.5812 219.151 35 217.427 35C216.476 35 215.584 34.8803 214.633 34.5812C213.742 34.2821 212.969 33.8633 212.375 33.3846L214.277 29.6752C214.693 30.0342 215.168 30.3333 215.644 30.5128C216.179 30.6923 216.714 30.812 217.189 30.812C217.903 30.812 218.497 30.6325 218.913 30.2735C219.389 29.9145 219.745 29.3761 220.102 28.5385L220.161 28.359L212.375 10.1111H217.784L222.836 22.3761L227.948 10.1111H233Z" fill="black"/>
<path opacity="0.53" d="M14.0276 7.53846L18.1883 0C18.1883 0 21.3386 14 26.1531 19.2051L14.0276 7.53846Z" fill="#00A5D6"/>
<path opacity="0.75" d="M12.6605 9.63248L8.85645 17.4701C8.85645 17.4701 21.5169 18.8462 29.1845 23.7521L12.6605 9.63248Z" fill="#00A5D6"/>
<path d="M6.95434 20.1026L0 32.3077C0 32.3077 22.2301 21.6581 35.2472 29.8547C35.2472 29.8547 30.1949 22.5556 6.95434 20.1026Z" fill="#00A5D6"/>
</svg>
