<svg width="56" height="56" viewBox="0 0 56 56" fill="none" xmlns="http://www.w3.org/2000/svg">
<path d="M29.9409 0.882188L35.6451 7.40798L44.1976 6.08591C45.7392 5.84761 47.1376 7.02439 47.1713 8.58821L47.3581 17.2642L54.7571 21.7645C56.0907 22.5756 56.4077 24.3786 55.4312 25.5982L50.0132 32.3649L52.7967 40.5818C53.2984 42.0628 52.3856 43.6483 50.8557 43.9531L42.3681 45.6442L39.2336 53.7329C38.6686 55.1908 36.9531 55.817 35.5858 55.0643L28 50.8886L20.4142 55.0643C19.0469 55.817 17.3314 55.1908 16.7664 53.7329L13.6319 45.6442L5.14428 43.9531C3.61442 43.6483 2.70163 42.0628 3.20334 40.5818L5.98677 32.3649L0.568813 25.5982C-0.407754 24.3786 -0.090748 22.5756 1.24289 21.7645L8.64189 17.2642L8.82871 8.58821C8.86238 7.02439 10.2608 5.84761 11.8024 6.08591L20.3549 7.40798L26.0591 0.882188C27.0872 -0.294063 28.9128 -0.294063 29.9409 0.882188ZM39.1903 20.2342C40.2981 21.1338 40.4689 22.7637 39.5719 23.8747L28.2016 37.9556C27.7876 38.4684 27.2184 38.781 26.6166 38.8805L26.3135 38.9124C25.7042 38.9406 25.0827 38.7535 24.5714 38.3383L18.5538 33.4515C17.446 32.5518 17.2752 30.9219 18.1723 29.811C19.0693 28.7 20.6946 28.5287 21.8024 29.4283L25.8133 32.6863L35.5601 20.6168C36.4572 19.5059 38.0825 19.3346 39.1903 20.2342Z" fill="#279943"/>
<path d="M39.1903 20.2342C40.2981 21.1338 40.4689 22.7637 39.5719 23.8747L28.2016 37.9556C27.7876 38.4684 27.2184 38.781 26.6166 38.8805L26.3135 38.9124C25.7042 38.9406 25.0827 38.7535 24.5714 38.3383L18.5538 33.4515C17.446 32.5518 17.2752 30.9219 18.1723 29.811C19.0693 28.7 20.6946 28.5287 21.8024 29.4283L25.8133 32.6863L35.5601 20.6168C36.4572 19.5059 38.0825 19.3346 39.1903 20.2342Z" fill="white"/>
</svg>
