<svg width="28" height="32" viewBox="0 0 28 32" fill="none" xmlns="http://www.w3.org/2000/svg">
<path d="M25.9993 32H13.9993C13.6457 32 13.3066 31.8595 13.0565 31.6095C12.8065 31.3594 12.666 31.0203 12.666 30.6667V28C12.666 27.6464 12.8065 27.3072 13.0565 27.0572C13.3066 26.8071 13.6457 26.6667 13.9993 26.6667H25.9993C26.353 26.6667 26.6921 26.8071 26.9422 27.0572C27.1922 27.3072 27.3327 27.6464 27.3327 28V30.6667C27.3327 31.0203 27.1922 31.3594 26.9422 31.6095C26.6921 31.8595 26.353 32 25.9993 32Z" fill="#78CFE9"/>
<path d="M25.9993 0H1.99935C1.64573 0 1.30659 0.140475 1.05654 0.390523C0.80649 0.640572 0.666016 0.979711 0.666016 1.33333V4C0.666016 4.35362 0.80649 4.69276 1.05654 4.94281C1.30659 5.19286 1.64573 5.33333 1.99935 5.33333H25.9993C26.353 5.33333 26.6921 5.19286 26.9422 4.94281C27.1922 4.69276 27.3327 4.35362 27.3327 4V1.33333C27.3327 0.979711 27.1922 0.640572 26.9422 0.390523C26.6921 0.140475 26.353 0 25.9993 0Z" fill="#2F364A"/>
<path d="M25.9993 8H1.99935C1.64573 8 1.30659 8.14047 1.05654 8.39052C0.80649 8.64057 0.666016 8.97971 0.666016 9.33333V22.6667C0.666016 23.0203 0.80649 23.3594 1.05654 23.6095C1.30659 23.8595 1.64573 24 1.99935 24H25.9993C26.353 24 26.6921 23.8595 26.9422 23.6095C27.1922 23.3594 27.3327 23.0203 27.3327 22.6667V9.33333C27.3327 8.97971 27.1922 8.64057 26.9422 8.39052C26.6921 8.14047 26.353 8 25.9993 8Z" fill="#00A5D6"/>
</svg>
